<svg aria-hidden="true" style="position: absolute; width: 0; height: 0; overflow: hidden;" version="1.1" xmlns="http://www.w3.org/2000/svg" xmlns:xlink="http://www.w3.org/1999/xlink">
<defs>

<symbol id="icon-logo" viewBox="0 0 178 32">
<path d="M140.303 14.763c-0.39-6.453-4.589-11.857-10.348-13.944-0.116-0.044-0.22 0.1-0.139 0.198 2.431 2.946 4.051 7.938 4.209 13.761 0 0.068 0.056 0.122 0.124 0.122h6.024c0.073 0 0.132-0.061 0.126-0.134l0.003-0.002z"></path>
<path d="M119.171 0.915c-5.627 2.151-9.708 7.492-10.094 13.849-0.004 0.073 0.054 0.134 0.127 0.134h5.851c0.068 0 0.122-0.054 0.124-0.122 0.156-5.763 1.747-10.708 4.136-13.666 0.081-0.098-0.024-0.241-0.141-0.195h-0.002z"></path>
<path d="M123.682 0.001c-3.624 0.929-6.567 7.233-6.796 14.766 0 0.071 0.056 0.132 0.127 0.132h6.701c0.068 0 0.124-0.056 0.124-0.124v-14.646c0-0.080-0.076-0.144-0.156-0.124v-0.002z"></path>
<path d="M123.836 31.313v-14.586c0-0.068-0.056-0.124-0.124-0.124h-6.699c-0.071 0-0.13 0.059-0.127 0.132 0.244 7.504 3.18 13.778 6.795 14.705 0.077 0.020 0.156-0.041 0.156-0.124v-0.002z"></path>
<path d="M109.073 16.737c0.388 6.384 4.502 11.742 10.164 13.876 0.12 0.044 0.222-0.098 0.141-0.195-2.419-2.939-4.036-7.899-4.204-13.693 0-0.068-0.057-0.122-0.124-0.122h-5.851c-0.073 0-0.132 0.061-0.127 0.134z"></path>
<path d="M125.704 31.382c3.531-1.085 6.374-7.27 6.616-14.649 0-0.071-0.056-0.132-0.127-0.132h-6.524c-0.068 0-0.124 0.056-0.124 0.124v14.532c0 0.083 0.081 0.146 0.161 0.122l-0.002 0.003z"></path>
<path d="M125.54 0.179v14.593c0 0.068 0.056 0.124 0.124 0.124h6.526c0.070 0 0.129-0.059 0.126-0.132-0.227-7.406-3.075-13.622-6.618-14.71-0.081-0.024-0.162 0.039-0.162 0.122l0.003 0.002z"></path>
<path d="M129.878 30.712c5.799-2.066 10.035-7.491 10.428-13.976 0.004-0.073-0.054-0.134-0.127-0.134h-6.026c-0.068 0-0.122 0.054-0.124 0.122-0.171 5.86-1.821 10.867-4.287 13.791-0.081 0.098 0.017 0.241 0.137 0.198z"></path>
<path d="M31.444 15.722c0-8.67-7.052-15.722-15.722-15.722s-15.722 7.052-15.722 15.722c0 8.67 7.052 15.722 15.722 15.722s15.722-7.052 15.722-15.722zM15.722 25.35c-5.309 0-9.628-4.32-9.628-9.628s4.32-9.628 9.628-9.628c5.309 0 9.628 4.32 9.628 9.628s-4.32 9.628-9.628 9.628z"></path>
<path d="M47.159 31.041h6.060v-24.69h10.878v-5.544h-27.816v5.544h10.878v24.69z"></path>
<path d="M77.875 0.403h-6.118v30.637h6.118v-12.905h16.383v12.905h6.12v-30.637h-6.12v12.414h-16.383v-12.414z"></path>
<path d="M172.043 22.343l-16.929-21.94h-5.957v30.637h5.738v-21.894l16.926 21.894h5.957v-30.637h-5.735v21.94z"></path>
</symbol>

<symbol id="icon-planet" viewBox="0 0 31 32">
<path fill="#fff" style="fill: var(--color1, #fff)" d="M31.111 15.056c-0.386-6.387-4.543-11.736-10.242-13.803-0.116-0.043-0.217 0.099-0.138 0.196 2.407 2.916 4.010 7.857 4.166 13.622 0 0.068 0.056 0.121 0.123 0.121h5.962c0.072 0 0.13-0.060 0.126-0.133l0.002-0.002z"></path>
<path fill="#fff" style="fill: var(--color1, #fff)" d="M10.19 1.347c-5.569 2.129-9.61 7.416-9.991 13.709-0.005 0.072 0.053 0.133 0.126 0.133h5.791c0.068 0 0.121-0.053 0.123-0.121 0.154-5.704 1.728-10.599 4.094-13.528 0.080-0.097-0.024-0.239-0.14-0.193h-0.002z"></path>
<path fill="#fff" style="fill: var(--color1, #fff)" d="M14.655 0.443c-3.587 0.92-6.501 7.16-6.728 14.616 0 0.070 0.056 0.13 0.125 0.13h6.633c0.068 0 0.123-0.056 0.123-0.123v-14.498c0-0.080-0.075-0.142-0.154-0.123v-0.002z"></path>
<path fill="#fff" style="fill: var(--color1, #fff)" d="M14.808 31.438v-14.438c0-0.068-0.056-0.123-0.123-0.123h-6.631c-0.070 0-0.128 0.058-0.125 0.13 0.241 7.428 3.148 13.639 6.725 14.556 0.077 0.019 0.154-0.041 0.154-0.123v-0.002z"></path>
<path fill="#fff" style="fill: var(--color1, #fff)" d="M0.194 17.010c0.384 6.32 4.456 11.623 10.061 13.735 0.118 0.043 0.22-0.097 0.14-0.193-2.395-2.909-3.995-7.819-4.162-13.554 0-0.068-0.056-0.121-0.123-0.121h-5.791c-0.072 0-0.13 0.060-0.126 0.133z"></path>
<path fill="#fff" style="fill: var(--color1, #fff)" d="M16.653 31.506c3.495-1.074 6.31-7.196 6.549-14.5 0-0.070-0.055-0.13-0.125-0.13h-6.457c-0.068 0-0.123 0.055-0.123 0.123v14.384c0 0.082 0.080 0.145 0.159 0.121l-0.002 0.002z"></path>
<path fill="#fff" style="fill: var(--color1, #fff)" d="M16.494 0.619v14.445c0 0.068 0.055 0.123 0.123 0.123h6.46c0.070 0 0.128-0.058 0.126-0.13-0.225-7.331-3.044-13.484-6.551-14.561-0.080-0.024-0.159 0.039-0.159 0.121l0.002 0.002z"></path>
<path fill="#fff" style="fill: var(--color1, #fff)" d="M20.783 30.842c5.74-2.045 9.933-7.416 10.322-13.834 0.005-0.072-0.053-0.133-0.125-0.133h-5.965c-0.068 0-0.121 0.053-0.123 0.121-0.169 5.801-1.803 10.756-4.244 13.651-0.080 0.097 0.017 0.239 0.135 0.196z"></path>
</symbol>

<symbol id="icon-planet-dark" viewBox="0 0 32 32">
<path fill="#18306c" style="fill: var(--color1, #18306c)" d="M31.23 14.763c-0.39-6.453-4.59-11.857-10.347-13.944-0.117-0.044-0.219 0.1-0.139 0.198 2.431 2.946 4.051 7.938 4.209 13.761 0 0.068 0.056 0.122 0.124 0.122h6.023c0.073 0 0.132-0.061 0.127-0.134l0.002-0.002z"></path>
<path fill="#18306c" style="fill: var(--color1, #18306c)" d="M10.097 0.915c-5.626 2.151-9.708 7.492-10.094 13.849-0.005 0.073 0.054 0.134 0.127 0.134h5.85c0.068 0 0.122-0.054 0.124-0.122 0.156-5.763 1.746-10.708 4.136-13.666 0.081-0.098-0.024-0.241-0.141-0.195h-0.002z"></path>
<path fill="#18306c" style="fill: var(--color1, #18306c)" d="M14.609 0.001c-3.624 0.929-6.567 7.233-6.796 14.766 0 0.071 0.056 0.132 0.127 0.132h6.701c0.068 0 0.124-0.056 0.124-0.124v-14.646c0-0.080-0.076-0.144-0.156-0.124v-0.002z"></path>
<path fill="#18306c" style="fill: var(--color1, #18306c)" d="M14.763 31.313v-14.586c0-0.068-0.056-0.124-0.124-0.124h-6.699c-0.071 0-0.129 0.059-0.127 0.132 0.244 7.504 3.18 13.778 6.794 14.705 0.078 0.020 0.156-0.041 0.156-0.124v-0.002z"></path>
<path fill="#18306c" style="fill: var(--color1, #18306c)" d="M0 16.737c0.388 6.384 4.502 11.742 10.164 13.876 0.12 0.044 0.222-0.098 0.141-0.195-2.419-2.939-4.036-7.899-4.204-13.693 0-0.068-0.056-0.122-0.124-0.122h-5.85c-0.073 0-0.132 0.061-0.127 0.134z"></path>
<path fill="#18306c" style="fill: var(--color1, #18306c)" d="M16.631 31.382c3.531-1.085 6.375-7.27 6.616-14.649 0-0.071-0.056-0.132-0.127-0.132h-6.523c-0.068 0-0.124 0.056-0.124 0.124v14.532c0 0.083 0.081 0.146 0.161 0.122l-0.002 0.002z"></path>
<path fill="#18306c" style="fill: var(--color1, #18306c)" d="M16.468 0.179v14.593c0 0.068 0.056 0.124 0.124 0.124h6.526c0.071 0 0.129-0.059 0.127-0.132-0.227-7.406-3.075-13.622-6.619-14.71-0.080-0.024-0.161 0.039-0.161 0.122l0.003 0.002z"></path>
<path fill="#18306c" style="fill: var(--color1, #18306c)" d="M20.805 30.712c5.799-2.066 10.035-7.492 10.428-13.976 0.005-0.073-0.054-0.134-0.127-0.134h-6.026c-0.068 0-0.122 0.054-0.124 0.122-0.171 5.86-1.822 10.867-4.287 13.79-0.081 0.098 0.017 0.241 0.137 0.198z"></path>
</symbol>

<symbol id="icon-arrow" viewBox="0 0 32 32">
<path fill="#fff" style="fill: var(--color1, #fff)" d="M2.206 26.102c-1.087 1.087-1.087 2.849 0 3.935s2.849 1.087 3.935 0l-3.935-3.935zM31.072 3.953c0-1.537-1.246-2.783-2.783-2.783h-25.043c-1.537 0-2.783 1.246-2.783 2.783s1.246 2.783 2.783 2.783h22.261v22.261c0 1.537 1.246 2.783 2.783 2.783s2.783-1.246 2.783-2.783v-25.044zM6.141 30.037l24.116-24.116-3.935-3.935-24.116 24.116 3.935 3.935z"></path>
</symbol>

<symbol id="icon-arrow-orange" viewBox="0 0 42 32">
<path fill="#f2683c" style="fill: var(--color1, #f2683c)" d="M2.945 14.016c-1.105 0-2 0.895-2 2s0.895 2 2 2v-4zM41.129 17.43c0.781-0.781 0.781-2.047 0-2.828l-12.728-12.728c-0.781-0.781-2.047-0.781-2.828 0s-0.781 2.047 0 2.828l11.314 11.314-11.314 11.314c-0.781 0.781-0.781 2.047 0 2.828s2.047 0.781 2.828 0l12.728-12.728zM2.945 18.016h36.769v-4h-36.769v4z"></path>
</symbol>

<symbol id="icon-arrow-in-circle" viewBox="0 0 33 32">
<path fill="#fff" style="fill: var(--color1, #fff)" d="M32.285 16.005c0 8.837-7.163 16-16 16s-16-7.163-16-16c0-8.837 7.163-16 16-16s16 7.163 16 16z"></path>
<path fill="#f2683c" style="fill: var(--color2, #f2683c)" d="M11.153 14.797c-0.5 0-0.906 0.405-0.906 0.906s0.405 0.906 0.906 0.906v-1.811zM22.894 16.343c0.354-0.354 0.354-0.927 0-1.281l-5.764-5.764c-0.354-0.354-0.927-0.354-1.281 0s-0.354 0.927 0 1.281l5.123 5.123-5.123 5.123c-0.354 0.354-0.354 0.927 0 1.281s0.927 0.354 1.281 0l5.764-5.764zM11.153 16.609h11.1v-1.811h-11.1v1.811z"></path>
</symbol>

<symbol id="icon-arrow-left-orange" viewBox="0 0 30 32">
<path fill="#f2683c" style="fill: var(--color1, #f2683c)" d="M28.222 18.013c1.111 0 2.013-0.901 2.013-2.013s-0.901-2.013-2.013-2.013v4.025zM2.132 14.577c-0.786 0.786-0.786 2.060 0 2.846l12.808 12.808c0.786 0.786 2.060 0.786 2.846 0s0.786-2.060 0-2.846l-11.385-11.385 11.385-11.385c0.786-0.786 0.786-2.060 0-2.846s-2.060-0.786-2.846 0l-12.808 12.808zM28.222 13.987h-24.667v4.025h24.667v-4.025z"></path>
</symbol>

<symbol id="icon-arrow-right-orange" viewBox="0 0 30 32">
<path fill="#f2683c" style="fill: var(--color1, #f2683c)" d="M3.556 13.987c-1.112 0-2.013 0.901-2.013 2.013s0.901 2.013 2.013 2.013v-4.025zM29.646 17.423c0.786-0.786 0.786-2.060 0-2.846l-12.808-12.808c-0.786-0.786-2.060-0.786-2.846 0s-0.786 2.060 0 2.846l11.385 11.385-11.385 11.385c-0.786 0.786-0.786 2.060 0 2.846s2.060 0.786 2.846 0l12.808-12.808zM3.556 18.013h24.667v-4.025h-24.667v4.025z"></path>
</symbol>

<symbol id="icon-burger-open" viewBox="0 0 32 32">
<path fill="#18306c" style="fill: var(--color1, #18306c)" d="M32 16c0 8.837-7.163 16-16 16s-16-7.163-16-16c0-8.837 7.163-16 16-16s16 7.163 16 16z"></path>
<path fill="#fff" style="fill: var(--color2, #fff)" d="M10.857 16h10.286c0.316 0 0.571 0.256 0.571 0.571s-0.256 0.571-0.571 0.571h-10.286c-0.316 0-0.571-0.256-0.571-0.571s0.256-0.571 0.571-0.571z"></path>
<path fill="#fff" style="fill: var(--color2, #fff)" d="M10.857 11.429h10.286c0.316 0 0.571 0.256 0.571 0.571s-0.256 0.571-0.571 0.571h-10.286c-0.316 0-0.571-0.256-0.571-0.571s0.256-0.571 0.571-0.571z"></path>
<path fill="#fff" style="fill: var(--color2, #fff)" d="M10.857 20.571h10.286c0.316 0 0.571 0.256 0.571 0.571s-0.256 0.571-0.571 0.571h-10.286c-0.316 0-0.571-0.256-0.571-0.571s0.256-0.571 0.571-0.571z"></path>
</symbol>

<symbol id="icon-burger-close" viewBox="0 0 32 32">
<path fill="#18306c" style="fill: var(--color1, #18306c); stroke: var(--color2, #fff)" stroke="#fff" stroke-linejoin="miter" stroke-linecap="butt" stroke-miterlimit="4" stroke-width="1.1429" d="M31.429 16c0 8.521-6.908 15.429-15.429 15.429s-15.429-6.908-15.429-15.429c0-8.521 6.908-15.429 15.429-15.429s15.429 6.908 15.429 15.429z"></path>
<path fill="#fff" style="fill: var(--color2, #fff)" d="M12.768 12.531l7.273 7.273c0.223 0.223 0.223 0.585 0 0.808s-0.585 0.223-0.808 0l-7.273-7.273c-0.223-0.223-0.223-0.585 0-0.808s0.585-0.223 0.808 0z"></path>
<path fill="#fff" style="fill: var(--color2, #fff)" d="M11.96 19.804l7.273-7.273c0.223-0.223 0.585-0.223 0.808 0s0.223 0.585 0 0.808l-7.273 7.273c-0.223 0.223-0.585 0.223-0.808 0s-0.223-0.585 0-0.808z"></path>
</symbol>

<symbol id="icon-sound-on" viewBox="0 0 38 32">
<path fill="#fff" style="fill: var(--color1, #fff)" d="M0.432 10.594v10.825c0.002 0.87 0.706 1.574 1.576 1.576h5.204v-1.341c-0.002-0.813 0.002-12.146 0-12.636h-5.204c-0.87 0.002-1.574 0.706-1.576 1.576z"></path>
<path fill="#fff" style="fill: var(--color1, #fff)" d="M23.201 0.091c-0.211-0.116-0.47-0.111-0.677 0.013l-13.97 8.397v15.010l13.97 8.397c0.104 0.065 0.225 0.101 0.349 0.101 0.369-0.005 0.666-0.302 0.671-0.671v-30.663c-0.002-0.241-0.132-0.463-0.342-0.584v0.001z"></path>
<path fill="#fff" style="fill: var(--color1, #fff)" d="M37.319 12.324c-0.178 0-0.349 0.070-0.474 0.196s-0.196 0.297-0.196 0.475v6.023c0 0.371 0.3 0.671 0.671 0.671s0.671-0.3 0.671-0.671v-6.023c0-0.178-0.070-0.349-0.196-0.475s-0.297-0.196-0.474-0.196z"></path>
<path fill="#fff" style="fill: var(--color1, #fff)" d="M33.806 10.443c-0.178 0-0.349 0.070-0.474 0.196s-0.196 0.297-0.196 0.475v9.785c0 0.37 0.3 0.671 0.671 0.671s0.671-0.3 0.671-0.671v-9.785c0-0.178-0.070-0.349-0.196-0.475s-0.297-0.196-0.474-0.196z"></path>
<path fill="#fff" style="fill: var(--color1, #fff)" d="M30.292 8.936c-0.178 0-0.347 0.070-0.473 0.196-0.127 0.126-0.198 0.297-0.198 0.475v12.796c0 0.371 0.3 0.671 0.671 0.671s0.671-0.3 0.671-0.671v-12.796c0-0.178-0.070-0.349-0.196-0.475s-0.297-0.196-0.474-0.196z"></path>
<path fill="#fff" style="fill: var(--color1, #fff)" d="M26.78 12.324c-0.178 0-0.347 0.070-0.473 0.196s-0.198 0.297-0.198 0.475v6.023c0 0.371 0.302 0.671 0.671 0.671 0.371 0 0.671-0.3 0.671-0.671v-6.023c0-0.178-0.070-0.349-0.196-0.475s-0.295-0.196-0.474-0.196z"></path>
</symbol>

<symbol id="icon-sound-off" viewBox="0 0 38 32">
<path fill="#fff" style="fill: var(--color1, #fff)" d="M0.504 10.594v10.825c0.002 0.87 0.706 1.574 1.576 1.576h5.204v-1.341c-0.002-0.813 0.002-12.146 0-12.636h-5.204c-0.87 0.002-1.574 0.706-1.576 1.576z"></path>
<path fill="#fff" style="fill: var(--color1, #fff)" d="M23.273 0.091c-0.211-0.116-0.47-0.111-0.677 0.013l-13.97 8.397v15.010l13.97 8.397c0.104 0.065 0.225 0.101 0.349 0.101 0.369-0.005 0.666-0.302 0.671-0.671v-30.663c-0.002-0.241-0.132-0.463-0.342-0.584v0.001z"></path>
<path fill="#fff" style="fill: var(--color1, #fff)" d="M36.276 11.007c-0.126-0.126-0.295-0.196-0.473-0.196-0.179-0.001-0.35 0.070-0.475 0.196l-9.048 9.048c-0.262 0.262-0.262 0.686 0 0.948s0.686 0.262 0.948 0l9.048-9.048c0.126-0.126 0.197-0.296 0.197-0.474s-0.071-0.349-0.197-0.474z"></path>
<path fill="#fff" style="fill: var(--color1, #fff)" d="M26.28 11.007c-0.126 0.126-0.196 0.295-0.196 0.473-0.001 0.179 0.070 0.35 0.196 0.475l9.048 9.048c0.262 0.262 0.686 0.262 0.948 0s0.262-0.686 0-0.948l-9.048-9.048c-0.126-0.126-0.296-0.197-0.474-0.197s-0.349 0.071-0.474 0.197z"></path>
</symbol>

<symbol id="icon-facebook" viewBox="0 0 32 32">
<path d="M15.872 0c-8.766 0-15.872 7.106-15.872 15.872s7.106 15.872 15.872 15.872c8.766 0 15.872-7.106 15.872-15.872s-7.106-15.872-15.872-15.872zM17.527 16.57v8.635h-3.573v-8.635h-1.785v-2.976h1.785v-1.787c0-2.428 1.008-3.871 3.872-3.871h2.384v2.976h-1.49c-1.115 0-1.188 0.416-1.188 1.192l-0.004 1.489h2.7l-0.316 2.976h-2.384z"></path>
</symbol>

<symbol id="icon-linkedin" viewBox="0 0 33 32">
<path d="M16.684 0c-8.766 0-15.872 7.106-15.872 15.872s7.106 15.872 15.872 15.872c8.766 0 15.872-7.106 15.872-15.872s-7.106-15.872-15.872-15.872zM8.431 13.146h3.597v10.807h-3.597v-10.807zM12.265 9.803c-0.023-1.060-0.781-1.867-2.012-1.867s-2.035 0.807-2.035 1.867c0 1.038 0.781 1.868 1.988 1.868h0.023c1.254 0 2.035-0.83 2.035-1.868zM20.86 12.892c2.367 0 4.141 1.545 4.141 4.865l-0 6.197h-3.597v-5.782c0-1.452-0.521-2.443-1.823-2.443-0.994 0-1.586 0.668-1.846 1.313-0.095 0.231-0.118 0.553-0.118 0.876v6.036h-3.597c0 0 0.047-9.793 0-10.807h3.597v1.531c0.477-0.736 1.332-1.785 3.242-1.785z"></path>
</symbol>

<symbol id="icon-youtube" viewBox="0 0 33 32">
<path d="M16.43 0c-8.766 0-15.872 7.106-15.872 15.872s7.106 15.872 15.872 15.872c8.766 0 15.872-7.106 15.872-15.872s-7.106-15.872-15.872-15.872zM23.044 10.415c0.728 0.2 1.302 0.789 1.497 1.537 0.354 1.356 0.354 4.184 0.354 4.184s0 2.828-0.354 4.184c-0.195 0.748-0.768 1.337-1.497 1.537-1.32 0.363-6.614 0.363-6.614 0.363s-5.294 0-6.614-0.363c-0.728-0.2-1.302-0.789-1.497-1.537-0.354-1.356-0.354-4.184-0.354-4.184s0-2.828 0.354-4.184c0.195-0.748 0.768-1.337 1.497-1.537 1.32-0.363 6.614-0.363 6.614-0.363s5.294 0 6.614 0.363z"></path>
<path d="M14.844 19.047v-5.291l4.233 2.645-4.233 2.645z"></path>
</symbol>

<symbol id="icon-instagram" viewBox="0 0 33 32">
<path d="M16.176 0c-8.766 0-15.872 7.106-15.872 15.872s7.106 15.872 15.872 15.872c8.766 0 15.872-7.106 15.872-15.872s-7.106-15.872-15.872-15.872zM12.686 7.458c0.903-0.041 1.192-0.051 3.491-0.051h-0.003c2.3 0 2.587 0.010 3.49 0.051 0.901 0.041 1.517 0.184 2.056 0.393 0.557 0.216 1.028 0.505 1.499 0.976s0.76 0.943 0.977 1.5c0.208 0.538 0.351 1.153 0.393 2.055 0.041 0.903 0.051 1.191 0.051 3.49s-0.011 2.587-0.051 3.49c-0.042 0.901-0.185 1.516-0.393 2.055-0.217 0.557-0.506 1.029-0.977 1.499s-0.942 0.761-1.498 0.977c-0.539 0.209-1.154 0.352-2.056 0.393-0.903 0.041-1.191 0.051-3.49 0.051s-2.587-0.010-3.49-0.051c-0.901-0.041-1.516-0.184-2.055-0.393-0.556-0.216-1.029-0.506-1.499-0.977s-0.76-0.943-0.976-1.5c-0.209-0.538-0.352-1.153-0.393-2.055-0.041-0.903-0.051-1.191-0.051-3.49s0.011-2.588 0.051-3.491c0.041-0.901 0.183-1.516 0.393-2.055 0.217-0.557 0.506-1.029 0.977-1.499s0.943-0.76 1.5-0.976c0.538-0.209 1.153-0.352 2.055-0.393z"></path>
<path d="M15.418 8.932c0.147-0 0.306-0 0.477-0l0.282 0c2.26 0 2.528 0.008 3.421 0.049 0.825 0.038 1.273 0.176 1.572 0.292 0.395 0.153 0.677 0.337 0.973 0.633s0.48 0.578 0.634 0.973c0.116 0.298 0.254 0.746 0.292 1.571 0.041 0.892 0.049 1.16 0.049 3.42s-0.009 2.527-0.049 3.42c-0.038 0.825-0.176 1.273-0.292 1.571-0.154 0.395-0.337 0.676-0.634 0.972s-0.578 0.48-0.973 0.633c-0.298 0.116-0.746 0.254-1.572 0.292-0.892 0.041-1.16 0.049-3.421 0.049s-2.528-0.009-3.421-0.049c-0.825-0.038-1.273-0.176-1.572-0.292-0.395-0.153-0.677-0.337-0.973-0.633s-0.48-0.578-0.633-0.973c-0.116-0.298-0.254-0.746-0.292-1.571-0.041-0.892-0.049-1.16-0.049-3.421s0.008-2.527 0.049-3.42c0.038-0.825 0.176-1.273 0.292-1.572 0.153-0.395 0.337-0.677 0.633-0.974s0.579-0.48 0.973-0.633c0.298-0.116 0.747-0.254 1.572-0.292 0.781-0.035 1.084-0.046 2.661-0.048v0.002zM20.695 10.338c-0.561 0-1.016 0.454-1.016 1.015s0.455 1.016 1.016 1.016c0.561 0 1.016-0.455 1.016-1.016s-0.455-1.016-1.016-1.016v0zM11.829 15.872c0-2.401 1.946-4.347 4.347-4.347s4.347 1.946 4.347 4.347-1.946 4.346-4.346 4.346c-2.401 0-4.347-1.946-4.347-4.346z"></path>
<path d="M16.178 13.050c1.558 0 2.822 1.263 2.822 2.822s-1.263 2.822-2.822 2.822c-1.558 0-2.822-1.263-2.822-2.822s1.263-2.822 2.822-2.822z"></path>
</symbol>

<symbol id="icon-twitter" viewBox="0 0 32 32">
<path d="M15.922 0c-8.766 0-15.872 7.106-15.872 15.872s7.106 15.872 15.872 15.872c8.766 0 15.872-7.106 15.872-15.872s-7.106-15.872-15.872-15.872zM15.479 13.45l-0.033-0.549c-0.1-1.423 0.777-2.724 2.165-3.228 0.511-0.179 1.377-0.202 1.943-0.045 0.222 0.067 0.644 0.291 0.944 0.493l0.544 0.37 0.6-0.191c0.333-0.101 0.777-0.269 0.977-0.381 0.189-0.101 0.355-0.157 0.355-0.123 0 0.191-0.411 0.841-0.755 1.199-0.466 0.504-0.333 0.549 0.611 0.213 0.566-0.191 0.577-0.191 0.466 0.022-0.067 0.112-0.411 0.504-0.777 0.863-0.622 0.617-0.655 0.684-0.655 1.199 0 0.796-0.377 2.455-0.755 3.362-0.699 1.704-2.198 3.463-3.697 4.349-2.109 1.244-4.918 1.558-7.283 0.829-0.788-0.247-2.143-0.874-2.143-0.986 0-0.034 0.411-0.078 0.91-0.090 1.044-0.022 2.087-0.314 2.975-0.829l0.6-0.359-0.688-0.235c-0.977-0.336-1.854-1.11-2.076-1.838-0.067-0.235-0.044-0.247 0.577-0.247l0.644-0.011-0.544-0.258c-0.644-0.325-1.232-0.874-1.521-1.435-0.211-0.404-0.477-1.423-0.4-1.502 0.022-0.034 0.255 0.034 0.522 0.123 0.766 0.28 0.866 0.213 0.422-0.258-0.833-0.852-1.088-2.118-0.688-3.318l0.189-0.538 0.733 0.729c1.499 1.468 3.264 2.342 5.285 2.6l0.555 0.067z"></path>
</symbol>

</defs>
</svg>